<svg t="1659429777261" class="icon" viewBox="0 0 1024 1024" version="1.1" xmlns="http://www.w3.org/2000/svg" p-id="1359" width="1em" height="1em" fill="currentColor"><path d="M512 938.666667A426.666667 426.666667 0 0 1 210.346667 210.346667 423.68 423.68 0 0 1 512 85.333333a42.666667 42.666667 0 0 1 0 85.333334 341.333333 341.333333 0 1 0 241.493333 582.826666 42.666667 42.666667 0 0 1 60.16 60.16A423.68 423.68 0 0 1 512 938.666667zM839.68 716.8a42.666667 42.666667 0 0 1-20.053333-56.746667 42.666667 42.666667 0 0 1 56.746666-20.053333 42.666667 42.666667 0 0 1 19.626667 56.746667 42.666667 42.666667 0 0 1-38.4 24.32 42.666667 42.666667 0 0 1-17.92-4.266667z m49.066667-119.466667a42.666667 42.666667 0 0 1-35.413334-47.36 42.666667 42.666667 0 0 1 46.933334-37.546666 42.666667 42.666667 0 0 1 37.973333 47.36A42.666667 42.666667 0 0 1 896 597.333333h-5.12z m-42.666667-161.28A42.666667 42.666667 0 0 1 876.8 384a42.666667 42.666667 0 0 1 51.2 32A42.666667 42.666667 0 0 1 896 469.333333a36.693333 36.693333 0 0 1-9.386667 0 42.666667 42.666667 0 0 1-41.813333-33.28z m-42.666667-105.813333a42.666667 42.666667 0 0 1 13.653334-58.88 42.666667 42.666667 0 0 1 58.88 13.653333 42.666667 42.666667 0 0 1-13.653334 58.88 42.666667 42.666667 0 0 1-22.613333 6.4 42.666667 42.666667 0 0 1-38.826667-20.053333z m-78.08-85.333333a42.666667 42.666667 0 0 1-6.826666-59.733334 42.666667 42.666667 0 0 1 59.733333-6.826666 42.666667 42.666667 0 0 1 6.826667 60.16 42.666667 42.666667 0 0 1-33.28 15.786666 42.666667 42.666667 0 0 1-26.453334-9.386666z m-100.266666-55.04A42.666667 42.666667 0 0 1 597.333333 135.253333a42.666667 42.666667 0 0 1 54.186667-26.026666 42.666667 42.666667 0 0 1 26.453333 54.186666 42.666667 42.666667 0 0 1-37.973333 28.586667 37.973333 37.973333 0 0 1-14.933333-2.133333z" p-id="1360"></path></svg>